<svg width="41" height="40" viewBox="0 0 41 40" fill="none" xmlns="http://www.w3.org/2000/svg">
<mask id="mask0_2281_5229" style="mask-type:luminance" maskUnits="userSpaceOnUse" x="0" y="0" width="41" height="40">
<path d="M41 0H0V40H41V0Z" fill="white"/>
</mask>
<g mask="url(#mask0_2281_5229)">
<path d="M20.2327 21.6295C19.8162 21.6295 19.4091 21.5069 19.0629 21.2771C18.7166 21.0473 18.4467 20.7206 18.2873 20.3385C18.1279 19.9563 18.0862 19.5358 18.1674 19.1301C18.2486 18.7244 18.4491 18.3517 18.7435 18.0591C19.0379 17.7666 19.4131 17.5673 19.8215 17.4866C20.2299 17.4058 20.6533 17.4471 21.0381 17.6053C21.4228 17.7636 21.7517 18.0315 21.9832 18.3754C22.2147 18.7193 22.3382 19.1237 22.3384 19.5373C22.3379 20.092 22.1159 20.6238 21.7211 21.016C21.3264 21.4082 20.791 21.6289 20.2327 21.6295ZM20.2327 17.7949C19.8862 17.7949 19.5475 17.8969 19.2594 18.0881C18.9714 18.2793 18.7469 18.5511 18.6143 18.869C18.4817 19.187 18.447 19.5368 18.5146 19.8744C18.5822 20.2119 18.749 20.5219 18.994 20.7653C19.239 21.0086 19.5511 21.1744 19.8909 21.2415C20.2307 21.3086 20.5829 21.2742 20.903 21.1425C21.2231 21.0108 21.4967 20.7878 21.6892 20.5016C21.8817 20.2155 21.9844 19.8791 21.9844 19.5349C21.9833 19.0738 21.7984 18.6318 21.4701 18.3058C21.1418 17.9797 20.6969 17.796 20.2327 17.7949Z" fill="#701A73"/>
<path d="M23.6812 5.66211L20.1216 11.2373L20.3522 11.3826L23.9118 5.80736L23.6812 5.66211Z" fill="#701A73"/>
<path d="M24.5099 6.23514C24.6024 6.09016 24.6495 5.92122 24.6453 5.74965C24.6412 5.57809 24.5859 5.4116 24.4865 5.27121C24.3872 5.13081 24.2481 5.02283 24.087 4.96088C23.9259 4.89893 23.7499 4.88581 23.5813 4.92316C23.4126 4.96051 23.2589 5.04667 23.1396 5.17074C23.0202 5.29482 22.9406 5.45125 22.9107 5.62028C22.8807 5.7893 22.9019 5.96334 22.9716 6.12041C23.0412 6.27747 23.1561 6.41052 23.3018 6.50274C23.3988 6.56404 23.507 6.60574 23.6202 6.62547C23.7335 6.6452 23.8495 6.64256 23.9617 6.6177C24.0739 6.59285 24.1801 6.54627 24.2741 6.48063C24.3682 6.41498 24.4483 6.33156 24.5099 6.23514Z" fill="#701A73"/>
<path d="M20.1192 11.3845L16.501 5.84644L16.7305 5.69824L20.3488 11.2363L20.1192 11.3845Z" fill="#701A73"/>
<path d="M17.3708 5.33467C17.2768 5.1905 17.1419 5.07728 16.9831 5.00932C16.8242 4.94136 16.6487 4.92172 16.4786 4.95289C16.3086 4.98406 16.1517 5.06463 16.0277 5.18442C15.9038 5.3042 15.8184 5.45781 15.7824 5.62581C15.7463 5.79382 15.7613 5.96866 15.8253 6.12821C15.8894 6.28777 15.9996 6.42487 16.1421 6.52217C16.2846 6.61947 16.453 6.67259 16.6259 6.67482C16.7988 6.67705 16.9685 6.62828 17.1135 6.53468C17.3077 6.40933 17.4439 6.21255 17.4921 5.98756C17.5404 5.76256 17.4967 5.52774 17.3708 5.33467Z" fill="#701A73"/>
<path d="M21.5432 19.5387C21.5432 19.7961 21.4664 20.0477 21.3224 20.2617C21.1784 20.4758 20.9738 20.6426 20.7344 20.7411C20.495 20.8396 20.2316 20.8653 19.9774 20.8151C19.7233 20.7649 19.4898 20.641 19.3066 20.459C19.1234 20.277 18.9986 20.0451 18.948 19.7926C18.8975 19.5402 18.9234 19.2785 19.0226 19.0407C19.1217 18.8029 19.2897 18.5996 19.5051 18.4566C19.7206 18.3136 19.9739 18.2373 20.233 18.2373C20.5805 18.2373 20.9138 18.3744 21.1595 18.6185C21.4052 18.8625 21.5432 19.1936 21.5432 19.5387Z" fill="#701A73"/>
<path d="M14.2379 13.7496L12.793 7.30609L13.06 7.24609L14.5097 13.6896L14.2379 13.7496Z" fill="#701A73"/>
<path d="M13.7872 7.12934C13.7496 6.96182 13.6628 6.80914 13.5378 6.69058C13.4129 6.57203 13.2554 6.49292 13.0852 6.46326C12.915 6.4336 12.7397 6.45471 12.5816 6.52393C12.4235 6.59316 12.2896 6.70738 12.1968 6.85217C12.104 6.99697 12.0565 7.16583 12.0603 7.33743C12.0641 7.50903 12.119 7.67567 12.2181 7.81628C12.3171 7.9569 12.456 8.06518 12.617 8.12746C12.778 8.18973 12.954 8.2032 13.1227 8.16615C13.2349 8.14144 13.3411 8.09502 13.4352 8.02954C13.5293 7.96405 13.6095 7.88079 13.6712 7.7845C13.7329 7.68822 13.7749 7.5808 13.7948 7.46838C13.8147 7.35597 13.8121 7.24076 13.7872 7.12934Z" fill="#701A73"/>
<path d="M7.90463 12.2117L7.84766 12.4775L14.3483 13.8522L14.4053 13.5863L7.90463 12.2117Z" fill="#701A73"/>
<path d="M8.09869 11.5063C7.9296 11.4706 7.75364 11.4854 7.59303 11.549C7.43242 11.6125 7.29437 11.7219 7.19631 11.8633C7.09825 12.0047 7.04458 12.1719 7.04208 12.3436C7.03958 12.5153 7.08837 12.6838 7.18227 12.828C7.27617 12.9722 7.41098 13.0855 7.56967 13.1536C7.72836 13.2218 7.90382 13.2416 8.07388 13.2108C8.24394 13.1799 8.40098 13.0997 8.52516 12.9802C8.64934 12.8607 8.7351 12.7074 8.7716 12.5395C8.81977 12.3143 8.77596 12.0793 8.64979 11.8861C8.52361 11.6929 8.32539 11.5574 8.09869 11.5093" fill="#701A73"/>
<path d="M14.2436 13.2984L13.9531 13.5869L18.7621 18.3637L19.0526 18.0752L14.2436 13.2984Z" fill="#701A73"/>
<path d="M13.4215 14.1806C13.2813 14.0413 13.1858 13.8639 13.1472 13.6707C13.1085 13.4775 13.1284 13.2772 13.2043 13.0952C13.2802 12.9133 13.4087 12.7577 13.5736 12.6483C13.7385 12.5389 13.9323 12.4805 14.1306 12.4805C14.329 12.4805 14.5228 12.5389 14.6877 12.6483C14.8526 12.7577 14.9811 12.9133 15.057 13.0952C15.1329 13.2772 15.1528 13.4775 15.1141 13.6707C15.0755 13.8639 14.98 14.0413 14.8398 14.1806C14.7467 14.2732 14.6361 14.3466 14.5145 14.3966C14.3928 14.4467 14.2624 14.4725 14.1306 14.4725C13.9989 14.4725 13.8685 14.4467 13.7468 14.3966C13.6252 14.3466 13.5146 14.2732 13.4215 14.1806Z" fill="#701A73"/>
<path d="M6.4123 15.8868L6.26562 16.1162L11.876 19.6546L12.0227 19.4252L6.4123 15.8868Z" fill="#701A73"/>
<path d="M6.84031 15.291C6.69436 15.1992 6.52427 15.1524 6.35155 15.1565C6.17883 15.1606 6.01122 15.2155 5.86988 15.3142C5.72855 15.4129 5.61983 15.551 5.55746 15.7111C5.4951 15.8711 5.48189 16.0459 5.51949 16.2134C5.55709 16.3809 5.64383 16.5336 5.76874 16.6522C5.89366 16.7707 6.05114 16.8499 6.2213 16.8796C6.39147 16.9093 6.56668 16.8882 6.7248 16.8191C6.88292 16.7499 7.01687 16.6358 7.10971 16.491C7.23418 16.2964 7.27573 16.0606 7.2252 15.8356C7.17468 15.6106 7.03623 15.4147 6.84031 15.291Z" fill="#701A73"/>
<path d="M11.8756 19.4225L6.29932 23.0205L6.44845 23.2486L12.0247 19.6505L11.8756 19.4225Z" fill="#701A73"/>
<path d="M5.93673 22.3806C5.79157 22.4739 5.67753 22.6079 5.60905 22.7656C5.54058 22.9233 5.52074 23.0977 5.55204 23.2666C5.58335 23.4355 5.66439 23.5914 5.78492 23.7146C5.90545 23.8378 6.06005 23.9226 6.22916 23.9585C6.39826 23.9944 6.57428 23.9796 6.73494 23.9161C6.89559 23.8525 7.03367 23.7431 7.1317 23.6016C7.22972 23.4601 7.28329 23.2929 7.28563 23.1212C7.28797 22.9494 7.23897 22.7808 7.14483 22.6368C7.01873 22.4438 6.82067 22.3084 6.59415 22.2603C6.36763 22.2123 6.13118 22.2555 5.93673 22.3806Z" fill="#701A73"/>
<path d="M18.3561 19.333H11.5552V19.741H18.3561V19.333Z" fill="#701A73"/>
<path d="M11.6061 20.534C11.4079 20.5339 11.2141 20.4754 11.0493 20.3659C10.8845 20.2564 10.756 20.1009 10.6802 19.9189C10.6044 19.7369 10.5846 19.5367 10.6233 19.3435C10.662 19.1504 10.7575 18.973 10.8977 18.8337C11.0379 18.6945 11.2165 18.5996 11.411 18.5612C11.6054 18.5227 11.807 18.5424 11.9902 18.6177C12.1734 18.693 12.33 18.8206 12.4402 18.9843C12.5504 19.148 12.6093 19.3405 12.6094 19.5374C12.6094 19.8017 12.5037 20.0552 12.3156 20.2421C12.1274 20.429 11.8722 20.534 11.6061 20.534Z" fill="#701A73"/>
<path d="M14.3446 25.2271L7.85742 26.6631L7.91681 26.9278L14.404 25.4918L14.3446 25.2271Z" fill="#701A73"/>
<path d="M7.74036 25.9416C7.57171 25.979 7.418 26.0652 7.29864 26.1893C7.17929 26.3134 7.09965 26.4699 7.06979 26.639C7.03993 26.808 7.06119 26.9821 7.13088 27.1391C7.20057 27.2962 7.31556 27.4292 7.46133 27.5214C7.6071 27.6136 7.7771 27.6608 7.94985 27.657C8.12261 27.6532 8.29037 27.5987 8.43193 27.5003C8.57349 27.4018 8.68251 27.2639 8.7452 27.104C8.80789 26.944 8.82145 26.7692 8.78416 26.6016C8.75928 26.4902 8.71254 26.3847 8.64662 26.2912C8.58069 26.1978 8.49687 26.1181 8.39993 26.0568C8.303 25.9955 8.19486 25.9538 8.08168 25.934C7.96851 25.9143 7.85253 25.9168 7.74036 25.9416Z" fill="#701A73"/>
<path d="M13.1235 31.844L12.856 31.784L14.2398 25.3291L14.5068 25.3891L13.1235 31.844Z" fill="#701A73"/>
<path d="M12.1477 31.5907C12.1116 31.7588 12.1264 31.9337 12.1904 32.0934C12.2544 32.2531 12.3646 32.3904 12.5072 32.4878C12.6497 32.5853 12.8181 32.6385 12.9911 32.6409C13.1642 32.6432 13.334 32.5945 13.4791 32.501C13.6243 32.4074 13.7383 32.2732 13.8066 32.1153C13.875 31.9574 13.8946 31.7829 13.8631 31.6139C13.8316 31.4449 13.7504 31.289 13.6296 31.1659C13.5089 31.0428 13.3541 30.958 13.1849 30.9223C12.9581 30.8744 12.7215 30.918 12.527 31.0433C12.3325 31.1686 12.1961 31.3655 12.1477 31.5907Z" fill="#701A73"/>
<path d="M18.7621 20.7144L13.9531 25.4912L14.2436 25.7797L19.0526 21.0029L18.7621 20.7144Z" fill="#701A73"/>
<path d="M14.8396 26.3049C14.6993 26.4442 14.5206 26.539 14.3261 26.5774C14.1316 26.6158 13.93 26.5961 13.7468 26.5207C13.5636 26.4453 13.4071 26.3176 13.2969 26.1538C13.1867 25.99 13.1279 25.7975 13.1279 25.6005C13.1279 25.4035 13.1867 25.211 13.2969 25.0472C13.4071 24.8834 13.5636 24.7557 13.7468 24.6803C13.93 24.6049 14.1316 24.5852 14.3261 24.6236C14.5206 24.662 14.6993 24.7568 14.8396 24.8961C14.9327 24.9886 15.0066 25.0984 15.057 25.2193C15.1074 25.3401 15.1334 25.4697 15.1334 25.6005C15.1334 25.7313 15.1074 25.8609 15.057 25.9817C15.0066 26.1026 14.9327 26.2124 14.8396 26.3049Z" fill="#701A73"/>
<path d="M20.1187 27.6963L16.5591 33.2715L16.7897 33.4167L20.3493 27.8415L20.1187 27.6963Z" fill="#701A73"/>
<path d="M15.957 32.8399C15.8645 32.9849 15.8174 33.1538 15.8215 33.3254C15.8257 33.497 15.881 33.6635 15.9803 33.8039C16.0797 33.9442 16.2187 34.0522 16.3798 34.1142C16.541 34.1761 16.717 34.1892 16.8856 34.1519C17.0542 34.1145 17.2079 34.0284 17.3273 33.9043C17.4466 33.7802 17.5263 33.6238 17.5562 33.4548C17.5861 33.2858 17.5649 33.1117 17.4953 32.9546C17.4257 32.7976 17.3108 32.6645 17.1651 32.5723C17.0681 32.511 16.9599 32.4693 16.8466 32.4496C16.7334 32.4299 16.6174 32.4325 16.5052 32.4574C16.393 32.4822 16.2868 32.5288 16.1927 32.5944C16.0987 32.6601 16.0185 32.7435 15.957 32.8399Z" fill="#701A73"/>
<path d="M23.7398 33.378L20.1216 27.8406L20.3511 27.6924L23.9694 33.2298L23.7398 33.378Z" fill="#701A73"/>
<path d="M23.096 33.7426C23.19 33.8867 23.325 34 23.4838 34.0679C23.6426 34.1359 23.8182 34.1555 23.9882 34.1243C24.1583 34.0932 24.3152 34.0126 24.4392 33.8928C24.5631 33.773 24.6485 33.6194 24.6845 33.4514C24.7205 33.2834 24.7056 33.1086 24.6415 32.949C24.5775 32.7895 24.4672 32.6524 24.3247 32.5551C24.1822 32.4578 24.0139 32.4046 23.841 32.4024C23.668 32.4002 23.4984 32.449 23.3534 32.5426C23.1592 32.6679 23.023 32.8647 22.9747 33.0897C22.9265 33.3147 22.9701 33.5495 23.096 33.7426Z" fill="#701A73"/>
<path d="M20.44 21.4033H20.0293V28.1588H20.44V21.4033Z" fill="#701A73"/>
<path d="M21.2388 28.1109C21.2387 28.3078 21.1798 28.5003 21.0696 28.664C20.9594 28.8277 20.8028 28.9553 20.6196 29.0306C20.4364 29.1059 20.2348 29.1256 20.0403 29.0871C19.8459 29.0487 19.6673 28.9538 19.5271 28.8146C19.3869 28.6753 19.2914 28.4979 19.2527 28.3047C19.214 28.1116 19.2338 27.9114 19.3096 27.7294C19.3854 27.5474 19.5139 27.3919 19.6787 27.2824C19.8435 27.1729 20.0372 27.1144 20.2355 27.1143C20.5016 27.1143 20.7568 27.2193 20.945 27.4062C21.1331 27.5931 21.2388 27.8466 21.2388 28.1109Z" fill="#701A73"/>
<path d="M27.4097 31.83L25.96 25.3871L26.227 25.3271L27.6767 31.77L27.4097 31.83Z" fill="#701A73"/>
<path d="M26.6791 31.9489C26.7167 32.1164 26.8035 32.2691 26.9284 32.3876C27.0534 32.5062 27.2109 32.5853 27.3811 32.615C27.5513 32.6446 27.7265 32.6235 27.8846 32.5543C28.0428 32.4851 28.1767 32.3708 28.2695 32.226C28.3623 32.0812 28.4098 31.9124 28.406 31.7408C28.4022 31.5692 28.3473 31.4025 28.2482 31.2619C28.1491 31.1213 28.0103 31.013 27.8493 30.9508C27.6882 30.8885 27.5122 30.875 27.3435 30.9121C27.2313 30.9368 27.1252 30.9832 27.031 31.0487C26.9369 31.1142 26.8567 31.1974 26.795 31.2937C26.7333 31.39 26.6913 31.4974 26.6714 31.6098C26.6515 31.7222 26.6541 31.8375 26.6791 31.9489Z" fill="#701A73"/>
<path d="M26.119 25.2254L26.062 25.4912L32.5627 26.8658L32.6196 26.6L26.119 25.2254Z" fill="#701A73"/>
<path d="M32.3693 27.571C32.5385 27.6069 32.7146 27.5921 32.8754 27.5286C33.0361 27.465 33.1743 27.3555 33.2724 27.2139C33.3705 27.0724 33.4241 26.9051 33.4265 26.7332C33.4288 26.5613 33.3798 26.3927 33.2857 26.2485C33.1915 26.1043 33.0564 25.9911 32.8974 25.9232C32.7385 25.8553 32.5628 25.8358 32.3927 25.8671C32.2225 25.8984 32.0655 25.9791 31.9416 26.099C31.8177 26.2189 31.7323 26.3727 31.6963 26.5408C31.6482 26.766 31.692 27.0011 31.8182 27.1942C31.9443 27.3874 32.1425 27.5229 32.3693 27.571Z" fill="#701A73"/>
<path d="M21.7079 20.7125L21.4175 21.001L26.2262 25.7781L26.5167 25.4896L21.7079 20.7125Z" fill="#701A73"/>
<path d="M27.0454 24.8944C27.1856 25.0337 27.281 25.2112 27.3197 25.4044C27.3584 25.5976 27.3385 25.7978 27.2626 25.9798C27.1867 26.1618 27.0581 26.3173 26.8933 26.4267C26.7284 26.5362 26.5345 26.5946 26.3362 26.5946C26.1379 26.5946 25.9441 26.5362 25.7792 26.4267C25.6143 26.3173 25.4858 26.1618 25.4099 25.9798C25.334 25.7978 25.3141 25.5976 25.3527 25.4044C25.3914 25.2112 25.4869 25.0337 25.6271 24.8944C25.7202 24.8019 25.8307 24.7285 25.9524 24.6784C26.0741 24.6283 26.2045 24.6025 26.3362 24.6025C26.4679 24.6025 26.5983 24.6283 26.72 24.6784C26.8417 24.7285 26.9523 24.8019 27.0454 24.8944Z" fill="#701A73"/>
<path d="M28.5915 19.4239L28.4448 19.6533L34.0543 23.1919L34.201 22.9625L28.5915 19.4239Z" fill="#701A73"/>
<path d="M33.6263 23.7862C33.7723 23.8781 33.9424 23.9249 34.1151 23.9207C34.2878 23.9166 34.4554 23.8617 34.5968 23.763C34.7381 23.6643 34.8468 23.5262 34.9092 23.3662C34.9715 23.2061 34.9847 23.0313 34.9471 22.8638C34.9095 22.6963 34.8228 22.5436 34.6979 22.4251C34.573 22.3065 34.4155 22.2274 34.2453 22.1977C34.0752 22.168 33.9 22.189 33.7418 22.2582C33.5837 22.3273 33.4498 22.4415 33.3569 22.5862C33.2952 22.6826 33.2532 22.79 33.2334 22.9025C33.2135 23.015 33.2162 23.1302 33.2412 23.2417C33.2662 23.3531 33.3131 23.4586 33.3792 23.552C33.4453 23.6455 33.5293 23.7251 33.6263 23.7862Z" fill="#701A73"/>
<path d="M34.0211 15.8287L28.4448 19.4268L28.594 19.6548L34.1702 16.0568L34.0211 15.8287Z" fill="#701A73"/>
<path d="M34.5304 16.6975C34.6755 16.6041 34.7895 16.47 34.8579 16.3123C34.9264 16.1545 34.9461 15.9802 34.9148 15.8113C34.8834 15.6423 34.8023 15.4865 34.6817 15.3633C34.5611 15.2402 34.4064 15.1554 34.2373 15.1196C34.0682 15.0839 33.8922 15.0987 33.7315 15.1623C33.5709 15.2259 33.4329 15.3354 33.3349 15.477C33.237 15.6185 33.1835 15.7858 33.1812 15.9575C33.179 16.1293 33.2281 16.2979 33.3223 16.4419C33.4485 16.6348 33.6466 16.77 33.8731 16.818C34.0996 16.8659 34.336 16.8226 34.5304 16.6975Z" fill="#701A73"/>
<path d="M28.9123 19.333H22.1113V19.741H28.9123V19.333Z" fill="#701A73"/>
<path d="M28.8607 18.542C29.059 18.5421 29.2528 18.6006 29.4176 18.7101C29.5824 18.8196 29.7108 18.9752 29.7866 19.1571C29.8625 19.3391 29.8823 19.5393 29.8436 19.7325C29.8049 19.9256 29.7094 20.103 29.5692 20.2423C29.429 20.3815 29.2504 20.4764 29.0559 20.5148C28.8615 20.5533 28.6599 20.5336 28.4767 20.4583C28.2935 20.383 28.1369 20.2554 28.0267 20.0917C27.9164 19.928 27.8575 19.7355 27.8574 19.5386C27.8574 19.2743 27.9631 19.0208 28.1513 18.8339C28.3394 18.647 28.5946 18.542 28.8607 18.542Z" fill="#701A73"/>
<path d="M32.5488 12.1477L26.062 13.5869L26.1215 13.8516L32.6083 12.4124L32.5488 12.1477Z" fill="#701A73"/>
<path d="M32.727 13.1365C32.8956 13.0991 33.0494 13.0129 33.1687 12.8888C33.2881 12.7647 33.3677 12.6082 33.3976 12.4391C33.4274 12.2701 33.4062 12.096 33.3365 11.939C33.2668 11.7819 33.1518 11.6489 33.006 11.5567C32.8603 11.4645 32.6903 11.4173 32.5175 11.4211C32.3447 11.4249 32.177 11.4794 32.0354 11.5778C31.8939 11.6763 31.7848 11.8142 31.7222 11.9741C31.6595 12.1341 31.6459 12.3089 31.6832 12.4765C31.7081 12.5879 31.7548 12.6934 31.8207 12.7869C31.8867 12.8803 31.9705 12.96 32.0674 13.0213C32.1644 13.0826 32.2725 13.1243 32.3857 13.1441C32.4988 13.1638 32.6148 13.1613 32.727 13.1365Z" fill="#701A73"/>
<path d="M26.2227 13.7471L25.9551 13.6871L27.3402 7.2334L27.6071 7.2934L26.2227 13.7471Z" fill="#701A73"/>
<path d="M28.3209 7.48579C28.357 7.31771 28.3421 7.14275 28.2781 6.98307C28.2141 6.82338 28.1039 6.68613 27.9614 6.58868C27.8189 6.49124 27.6504 6.43797 27.4774 6.43563C27.3044 6.43328 27.1346 6.48196 26.9894 6.57551C26.8443 6.66906 26.7303 6.80327 26.662 6.96116C26.5936 7.11906 26.5739 7.29354 26.6054 7.46254C26.6369 7.63154 26.7182 7.78746 26.8389 7.91058C26.9597 8.0337 27.1145 8.11848 27.2837 8.1542C27.5105 8.20205 27.7471 8.15853 27.9415 8.0332C28.136 7.90787 28.2724 7.71098 28.3209 7.48579Z" fill="#701A73"/>
<path d="M26.2258 13.3001L21.4175 18.0762L21.7079 18.3646L26.5162 13.5885L26.2258 13.3001Z" fill="#701A73"/>
<path d="M25.6278 12.7721C25.768 12.6328 25.9467 12.538 26.1412 12.4996C26.3357 12.4612 26.5373 12.4809 26.7205 12.5563C26.9037 12.6317 27.0603 12.7594 27.1705 12.9232C27.2806 13.0869 27.3394 13.2795 27.3394 13.4765C27.3394 13.6735 27.2806 13.866 27.1705 14.0298C27.0603 14.1936 26.9037 14.3212 26.7205 14.3966C26.5373 14.472 26.3357 14.4918 26.1412 14.4534C25.9467 14.415 25.768 14.3201 25.6278 14.1809C25.5346 14.0884 25.4608 13.9786 25.4103 13.8577C25.3599 13.7369 25.334 13.6073 25.334 13.4765C25.334 13.3457 25.3599 13.2161 25.4103 13.0952C25.4608 12.9744 25.5346 12.8646 25.6278 12.7721Z" fill="#701A73"/>
<path d="M20.44 10.918H20.0293V17.6734H20.44V10.918Z" fill="#701A73"/>
<path d="M19.2285 10.969C19.2286 10.7721 19.2875 10.5796 19.3978 10.4159C19.508 10.2522 19.6646 10.1246 19.8478 10.0493C20.031 9.97402 20.2326 9.95435 20.427 9.9928C20.6215 10.0313 20.8001 10.1261 20.9403 10.2654C21.0805 10.4046 21.1759 10.582 21.2147 10.7752C21.2534 10.9683 21.2336 11.1686 21.1577 11.3505C21.0819 11.5325 20.9535 11.6881 20.7887 11.7975C20.6239 11.907 20.4301 11.9655 20.2318 11.9657C19.9657 11.9657 19.7105 11.8607 19.5224 11.6738C19.3342 11.4869 19.2285 11.2334 19.2285 10.969Z" fill="#701A73"/>
<path d="M16.2287 9.66533L16.0396 9.74316L18.2436 15.0288L18.4327 14.9509L16.2287 9.66533Z" fill="#701A73"/>
<path d="M16.7131 9.49684C16.6664 9.38477 16.5873 9.28898 16.4858 9.22157C16.3843 9.15417 16.2649 9.11818 16.1428 9.11816C16.0207 9.11815 15.9013 9.1541 15.7998 9.22148C15.6983 9.28886 15.6191 9.38464 15.5724 9.4967C15.5257 9.60876 15.5134 9.73206 15.5373 9.85102C15.5611 9.96999 15.6199 10.0793 15.7062 10.165C15.7926 10.2508 15.9026 10.3092 16.0224 10.3328C16.1421 10.3565 16.2663 10.3443 16.3791 10.2979C16.5303 10.2356 16.6504 10.1163 16.7131 9.96604C16.7757 9.81583 16.7757 9.64707 16.7131 9.49684Z" fill="#701A73"/>
<path d="M18.1952 14.2954L17.9424 14.3994L19.3158 17.692L19.5685 17.588L18.1952 14.2954Z" fill="#701A73"/>
<path d="M18.7452 14.1067C18.6907 13.976 18.5985 13.8643 18.48 13.7857C18.3616 13.707 18.2224 13.6651 18.08 13.665C17.9376 13.665 17.7984 13.7069 17.6799 13.7855C17.5615 13.8641 17.4692 13.9758 17.4147 14.1065C17.3602 14.2372 17.3459 14.381 17.3737 14.5198C17.4015 14.6585 17.4701 14.786 17.5708 14.886C17.6715 14.986 17.7998 15.0542 17.9395 15.0817C18.0792 15.1093 18.224 15.0951 18.3556 15.041C18.5319 14.9683 18.672 14.8292 18.7451 14.654C18.8182 14.4788 18.8182 14.282 18.7452 14.1067Z" fill="#701A73"/>
<path d="M15.6151 17.7483L10.2935 15.5589L10.3726 15.3711L15.6942 17.5605L15.6151 17.7483Z" fill="#701A73"/>
<path d="M10.5988 14.91C10.486 14.8636 10.3619 14.8514 10.2421 14.875C10.1223 14.8987 10.0123 14.9571 9.92597 15.0428C9.83962 15.1286 9.78081 15.2379 9.75698 15.3568C9.73316 15.4758 9.74538 15.5991 9.79211 15.7112C9.83884 15.8232 9.91798 15.919 10.0195 15.9864C10.1211 16.0538 10.2404 16.0897 10.3625 16.0897C10.4846 16.0897 10.604 16.0537 10.7055 15.9863C10.807 15.9189 10.8862 15.8231 10.9329 15.711C10.9639 15.6366 10.9799 15.5569 10.98 15.4764C10.98 15.3959 10.964 15.3161 10.933 15.2417C10.902 15.1673 10.8565 15.0997 10.7992 15.0428C10.7418 14.9859 10.6737 14.9408 10.5988 14.91Z" fill="#701A73"/>
<path d="M15.0573 17.2635L14.9526 17.5146L18.267 18.8782L18.3717 18.6271L15.0573 17.2635Z" fill="#701A73"/>
<path d="M15.3175 16.741C15.1859 16.6869 15.0411 16.6727 14.9014 16.7002C14.7617 16.7278 14.6334 16.7959 14.5327 16.896C14.432 16.996 14.3634 17.1234 14.3356 17.2622C14.3078 17.4009 14.3221 17.5448 14.3766 17.6755C14.4311 17.8062 14.5234 17.9179 14.6418 17.9964C14.7603 18.075 14.8995 18.117 15.0419 18.1169C15.1843 18.1169 15.3236 18.0749 15.442 17.9963C15.5604 17.9177 15.6526 17.806 15.7071 17.6752C15.7801 17.5 15.7801 17.3032 15.707 17.128C15.6339 16.9528 15.4938 16.8136 15.3175 16.741Z" fill="#701A73"/>
<path d="M15.6153 21.3274L10.2935 23.5186L10.3719 23.7065L15.6937 21.5153L15.6153 21.3274Z" fill="#701A73"/>
<path d="M10.1268 23.032C10.014 23.0784 9.91757 23.1569 9.84971 23.2578C9.78185 23.3586 9.74562 23.4772 9.74561 23.5985C9.74559 23.7198 9.78179 23.8383 9.84962 23.9392C9.91745 24.0401 10.0139 24.1187 10.1267 24.1651C10.2395 24.2115 10.3636 24.2236 10.4834 24.2C10.6032 24.1763 10.7132 24.1179 10.7995 24.0321C10.8858 23.9463 10.9446 23.8371 10.9684 23.7181C10.9922 23.5991 10.98 23.4758 10.9332 23.3638C10.8706 23.2136 10.7504 23.0943 10.5992 23.032C10.448 22.9698 10.2781 22.9698 10.1268 23.032Z" fill="#701A73"/>
<path d="M18.268 20.1975L14.9526 21.5625L15.0574 21.8136L18.3728 20.4486L18.268 20.1975Z" fill="#701A73"/>
<path d="M14.7665 21.0163C14.6349 21.0704 14.5224 21.162 14.4432 21.2796C14.3641 21.3972 14.3218 21.5355 14.3218 21.677C14.3218 21.8185 14.364 21.9568 14.4431 22.0744C14.5222 22.192 14.6347 22.2837 14.7662 22.3379C14.8978 22.392 15.0426 22.4062 15.1823 22.3786C15.322 22.351 15.4503 22.2828 15.551 22.1828C15.6517 22.0828 15.7202 21.9553 15.748 21.8165C15.7758 21.6778 15.7615 21.534 15.707 21.4033C15.6339 21.2281 15.4937 21.0889 15.3174 21.0164C15.141 20.9438 14.9428 20.9438 14.7665 21.0163Z" fill="#701A73"/>
<path d="M18.2394 24.0475L16.0352 29.333L16.2243 29.4109L18.4286 24.1254L18.2394 24.0475Z" fill="#701A73"/>
<path d="M15.5724 29.1091C15.5257 29.2211 15.5134 29.3444 15.5372 29.4634C15.561 29.5824 15.6198 29.6916 15.7062 29.7774C15.7925 29.8632 15.9025 29.9216 16.0223 29.9453C16.142 29.9689 16.2662 29.9568 16.379 29.9104C16.4918 29.864 16.5882 29.7854 16.656 29.6845C16.7239 29.5836 16.7601 29.4651 16.7601 29.3438C16.76 29.2225 16.7238 29.1039 16.656 29.0031C16.5881 28.9022 16.4917 28.8237 16.3788 28.7773C16.304 28.7464 16.2237 28.7305 16.1426 28.7305C16.0616 28.7304 15.9813 28.7463 15.9064 28.7771C15.8315 28.8079 15.7634 28.8531 15.7061 28.9101C15.6488 28.967 15.6034 29.0347 15.5724 29.1091Z" fill="#701A73"/>
<path d="M19.3177 21.3859L17.9424 24.6777L18.1951 24.7819L19.5705 21.4901L19.3177 21.3859Z" fill="#701A73"/>
<path d="M17.4199 24.4228C17.3652 24.5535 17.3508 24.6975 17.3785 24.8363C17.4062 24.9752 17.4748 25.1028 17.5755 25.2029C17.6763 25.303 17.8047 25.3712 17.9445 25.3988C18.0843 25.4264 18.2292 25.4121 18.3608 25.3579C18.4924 25.3036 18.6049 25.2117 18.6839 25.0939C18.763 24.9761 18.805 24.8377 18.8048 24.6961C18.8046 24.5545 18.762 24.4162 18.6826 24.2987C18.6032 24.1811 18.4904 24.0896 18.3586 24.0358C18.1822 23.9633 17.984 23.9633 17.8077 24.0359C17.6313 24.1085 17.4912 24.2476 17.4181 24.4228" fill="#701A73"/>
<path d="M22.2229 24.0481L22.0337 24.126L24.2377 29.4116L24.4269 29.3337L22.2229 24.0481Z" fill="#701A73"/>
<path d="M23.7501 29.5782C23.7968 29.6903 23.8759 29.7861 23.9774 29.8535C24.0789 29.9209 24.1983 29.9569 24.3204 29.9569C24.4425 29.9569 24.5619 29.9209 24.6634 29.8536C24.7649 29.7862 24.8441 29.6904 24.8908 29.5783C24.9375 29.4663 24.9498 29.343 24.9259 29.224C24.9021 29.1051 24.8433 28.9958 24.7569 28.91C24.6706 28.8243 24.5606 28.7659 24.4408 28.7422C24.321 28.7186 24.1969 28.7308 24.0841 28.7772C23.9329 28.8394 23.8128 28.9588 23.7501 29.109C23.6875 29.2592 23.6875 29.428 23.7501 29.5782Z" fill="#701A73"/>
<path d="M21.1507 21.3852L20.8979 21.4893L22.2713 24.7819L22.5241 24.6778L21.1507 21.3852Z" fill="#701A73"/>
<path d="M21.7193 24.9702C21.7737 25.1009 21.866 25.2126 21.9844 25.2912C22.1028 25.3699 22.242 25.4118 22.3845 25.4119C22.5269 25.4119 22.6661 25.37 22.7845 25.2914C22.903 25.2128 22.9953 25.1011 23.0498 24.9704C23.1043 24.8397 23.1185 24.6959 23.0908 24.5571C23.063 24.4184 22.9944 24.2909 22.8937 24.1909C22.7929 24.0909 22.6646 24.0227 22.5249 23.9952C22.3852 23.9676 22.2405 23.9818 22.1089 24.0359C21.9325 24.1086 21.7924 24.2477 21.7194 24.4229C21.6463 24.5981 21.6463 24.7949 21.7193 24.9702Z" fill="#701A73"/>
<path d="M30.0933 23.7072L24.771 21.5208L24.8501 21.333L30.1718 23.5224L30.0933 23.7072Z" fill="#701A73"/>
<path d="M29.8694 24.168C29.9822 24.2144 30.1064 24.2266 30.2261 24.2029C30.3459 24.1793 30.4559 24.1209 30.5423 24.0351C30.6286 23.9494 30.6874 23.8401 30.7113 23.7211C30.7351 23.6022 30.7229 23.4789 30.6761 23.3668C30.6294 23.2548 30.5503 23.159 30.4487 23.0916C30.3472 23.0242 30.2278 22.9883 30.1057 22.9883C29.9836 22.9883 29.8643 23.0243 29.7627 23.0917C29.6612 23.1591 29.5821 23.2549 29.5354 23.367C29.5043 23.4413 29.4883 23.5211 29.4883 23.6016C29.4883 23.6821 29.5042 23.7619 29.5352 23.8363C29.5663 23.9107 29.6117 23.9782 29.6691 24.0352C29.7264 24.0921 29.7945 24.1372 29.8694 24.168Z" fill="#701A73"/>
<path d="M22.1965 20.201L22.0918 20.4521L25.4066 21.8163L25.5113 21.5652L22.1965 20.201Z" fill="#701A73"/>
<path d="M25.1519 22.3354C25.2834 22.3896 25.4282 22.4037 25.5679 22.3762C25.7076 22.3486 25.8359 22.2805 25.9366 22.1805C26.0373 22.0804 26.1059 21.953 26.1337 21.8142C26.1615 21.6755 26.1473 21.5317 26.0927 21.401C26.0382 21.2703 25.9459 21.1586 25.8275 21.08C25.7091 21.0014 25.5698 20.9594 25.4274 20.9595C25.285 20.9595 25.1458 21.0015 25.0274 21.0801C24.909 21.1587 24.8167 21.2705 24.7622 21.4012C24.6892 21.5764 24.6893 21.7732 24.7623 21.9484C24.8354 22.1236 24.9755 22.2628 25.1519 22.3354Z" fill="#701A73"/>
<path d="M24.8501 17.7483L24.771 17.5605L30.0926 15.3711L30.1718 15.5589L24.8501 17.7483Z" fill="#701A73"/>
<path d="M30.3417 16.0431C30.4546 15.9967 30.551 15.9181 30.6189 15.8173C30.6867 15.7164 30.7229 15.5979 30.723 15.4766C30.723 15.3553 30.6868 15.2367 30.6189 15.1358C30.5511 15.035 30.4547 14.9564 30.3419 14.91C30.2291 14.8635 30.1049 14.8514 29.9852 14.8751C29.8654 14.8987 29.7554 14.9572 29.6691 15.0429C29.5827 15.1287 29.5239 15.238 29.5001 15.3569C29.4763 15.4759 29.4886 15.5992 29.5353 15.7113C29.598 15.8615 29.7181 15.9808 29.8694 16.043C30.0206 16.1052 30.1905 16.1053 30.3417 16.0431Z" fill="#701A73"/>
<path d="M25.4067 17.2621L22.0918 18.626L22.1965 18.8771L25.5114 17.5132L25.4067 17.2621Z" fill="#701A73"/>
<path d="M25.698 18.0626C25.8296 18.0085 25.9421 17.9168 26.0212 17.7992C26.1004 17.6816 26.1427 17.5433 26.1427 17.4018C26.1427 17.2604 26.1005 17.1221 26.0214 17.0044C25.9423 16.8868 25.8298 16.7951 25.6982 16.741C25.5666 16.6868 25.4219 16.6727 25.2822 16.7003C25.1425 16.7279 25.0142 16.796 24.9135 16.896C24.8128 16.9961 24.7442 17.1236 24.7165 17.2623C24.6887 17.4011 24.703 17.5449 24.7575 17.6756C24.8306 17.8507 24.9707 17.9899 25.1471 18.0625C25.3235 18.1351 25.5216 18.1351 25.698 18.0626Z" fill="#701A73"/>
<path d="M24.2428 9.66564L22.0386 14.9512L22.2278 15.029L24.4319 9.74349L24.2428 9.66564Z" fill="#701A73"/>
<path d="M24.8956 9.96908C24.9424 9.85703 24.9546 9.73373 24.9308 9.61476C24.907 9.4958 24.8482 9.38651 24.7619 9.30074C24.6756 9.21496 24.5656 9.15655 24.4458 9.13288C24.326 9.10921 24.2019 9.12136 24.0891 9.16778C23.9763 9.21419 23.8799 9.2928 23.812 9.39366C23.7442 9.49451 23.708 9.61309 23.708 9.73438C23.708 9.85567 23.7443 9.97423 23.8121 10.0751C23.88 10.1759 23.9764 10.2545 24.0892 10.3009C24.1641 10.3318 24.2444 10.3477 24.3254 10.3477C24.4065 10.3477 24.4868 10.3319 24.5617 10.3011C24.6366 10.2702 24.7046 10.2251 24.7619 10.1681C24.8192 10.1111 24.8647 10.0435 24.8956 9.96908Z" fill="#701A73"/>
<path d="M22.2733 14.2961L20.8979 17.5879L21.1507 17.6921L22.526 14.4003L22.2733 14.2961Z" fill="#701A73"/>
<path d="M23.0502 14.6536C23.1048 14.5229 23.119 14.3791 23.0913 14.2403C23.0635 14.1016 22.9949 13.9741 22.8942 13.8741C22.7935 13.774 22.6652 13.7059 22.5256 13.6783C22.3859 13.6507 22.2411 13.6649 22.1095 13.719C21.9779 13.7731 21.8655 13.8648 21.7863 13.9825C21.7072 14.1001 21.665 14.2384 21.665 14.3799C21.6651 14.5213 21.7073 14.6596 21.7865 14.7772C21.8656 14.8949 21.9781 14.9865 22.1097 15.0406C22.2861 15.1131 22.4843 15.1131 22.6606 15.0405C22.837 14.9679 22.9771 14.8288 23.0502 14.6536Z" fill="#701A73"/>
<path fill-rule="evenodd" clip-rule="evenodd" d="M20.2787 2.24402C23.839 2.24402 27.3194 3.28534 30.2797 5.23629C33.24 7.18725 35.5473 9.96024 36.91 13.2046C38.2726 16.449 38.6293 20.0191 37.935 23.4634C37.2407 26.9077 35.5265 30.0717 33.0093 32.5551C30.4921 35.0386 27.2848 36.73 23.793 37.4155C20.3012 38.1011 16.6817 37.75 13.3922 36.4066C10.1028 35.0632 7.291 32.7878 5.31249 29.8682C3.33398 26.9487 2.27757 23.516 2.27685 20.0042C2.28505 15.297 4.18419 10.7849 7.55832 7.45606C10.9324 4.12724 15.5065 2.25306 20.2787 2.24402ZM20.2787 0C24.2888 0.000474674 28.2087 1.17381 31.5428 3.37165C34.8769 5.56949 37.4754 8.69312 39.0097 12.3476C40.5441 16.002 40.9453 20.0232 40.1629 23.9026C39.3804 27.782 37.4492 31.3455 34.6136 34.1423C31.778 36.9392 28.1653 38.8439 24.2322 39.6157C20.2992 40.3874 16.2225 39.9914 12.5176 38.4779C8.8127 36.9643 5.64599 34.4012 3.41789 31.1125C1.18979 27.8238 0.000360941 23.9572 0 20.0018C0.0102894 14.7001 2.15003 9.61847 5.95069 5.8696C9.75135 2.12073 14.9032 0.0101492 20.2781 0" fill="#701A73"/>
</g>
</svg>
